<svg id="Layer_1" data-name="Layer 1" xmlns="http://www.w3.org/2000/svg" viewBox="0 0 511.91 130.94"><defs><style>.cls-1{fill:#fff;}.cls-2{fill:#231f20;}</style></defs><path class="cls-1" d="M81,185c-1,0-2.06,0-3.1,0a42.53,42.53,0,0,1-6.39-.56,20.07,20.07,0,0,1-5.68-1.87A18.74,18.74,0,0,1,61.08,179a18.15,18.15,0,0,1-3.49-4.78,19.45,19.45,0,0,1-1.86-5.68,42.8,42.8,0,0,1-.57-6.41c0-.73,0-3.13,0-3.13V79.93s0-2.36,0-3.06a42.36,42.36,0,0,1,.57-6.41,19.51,19.51,0,0,1,1.86-5.69A18.36,18.36,0,0,1,61.06,60a19.14,19.14,0,0,1,4.8-3.5,20,20,0,0,1,5.66-1.86,42.92,42.92,0,0,1,6.42-.57L81,54H541.09l3.12,0a41.73,41.73,0,0,1,6.36.55,20.24,20.24,0,0,1,5.72,1.88A18.94,18.94,0,0,1,561.06,60a19.28,19.28,0,0,1,3.5,4.81,19.91,19.91,0,0,1,1.83,5.65,45,45,0,0,1,.6,6.46c0,1,0,2,0,3,0,1.29,0,2.51,0,3.74v71.64c0,1.25,0,2.46,0,3.68s0,2.14,0,3.19a43.69,43.69,0,0,1-.58,6.34,19.89,19.89,0,0,1-1.85,5.72,18.72,18.72,0,0,1-3.48,4.74,18.44,18.44,0,0,1-4.79,3.5,20,20,0,0,1-5.71,1.88,42.11,42.11,0,0,1-6.4.56c-1,0-2,0-3.07,0H81Z" transform="translate(-55.11 -54.02)"/><path class="cls-2" d="M136.91,120.52c-.09-9.42,7.71-14,8.07-14.21a17.36,17.36,0,0,0-13.67-7.39c-5.74-.6-11.32,3.44-14.25,3.44s-7.49-3.38-12.35-3.28a18.21,18.21,0,0,0-15.31,9.34c-6.62,11.46-1.68,28.31,4.66,37.57,3.17,4.54,6.88,9.61,11.73,9.43s6.52-3,12.26-3,7.34,3,12.29,2.91,8.3-4.55,11.36-9.13a37.64,37.64,0,0,0,5.2-10.59A16.37,16.37,0,0,1,136.91,120.52Z" transform="translate(-55.11 -54.02)"/><path class="cls-2" d="M127.56,92.83a16.68,16.68,0,0,0,3.81-12,17,17,0,0,0-11,5.68c-2.35,2.75-4.45,7.26-3.91,11.51C120.63,98.37,124.89,96,127.56,92.83Z" transform="translate(-55.11 -54.02)"/><path class="cls-2" d="M173.92,134.84a1.9,1.9,0,1,1,1.9,1.93A1.88,1.88,0,0,1,173.92,134.84Zm.31,24.26V138.67h3.17V159.1Z" transform="translate(-55.11 -54.02)"/><path class="cls-2" d="M182.59,143.68h2.93v2.45h.23a4.61,4.61,0,0,1,4.6-2.74c3.44,0,5.33,2.06,5.33,5.73v10h-3v-9.22c0-2.48-1.08-3.71-3.33-3.71s-3.68,1.51-3.68,3.91v9h-3Z" transform="translate(-55.11 -54.02)"/><path class="cls-2" d="M199.62,151.38c0-4.87,2.51-7.95,6.4-7.95a5.08,5.08,0,0,1,4.73,2.7H211v-8.46H214V159.1H211.1v-2.44h-.24a5.34,5.34,0,0,1-4.84,2.69C202.1,159.35,199.62,156.27,199.62,151.38Zm3.14,0c0,3.27,1.55,5.24,4.12,5.24s4.15-2,4.15-5.22-1.6-5.24-4.15-5.24S202.76,148.14,202.76,151.38Z" transform="translate(-55.11 -54.02)"/><path class="cls-2" d="M218.61,139.12a2,2,0,1,1,2,1.86A1.88,1.88,0,0,1,218.61,139.12Zm.45,4.56h3V159.1h-3Z" transform="translate(-55.11 -54.02)"/><path class="cls-2" d="M227,143.68h2.93v2.37h.23a4.16,4.16,0,0,1,4.16-2.62,6.88,6.88,0,0,1,1.36.12v3a8,8,0,0,0-1.7-.19A3.62,3.62,0,0,0,230,150v9.11h-3Z" transform="translate(-55.11 -54.02)"/><path class="cls-2" d="M238.87,139.12a2,2,0,1,1,2,1.86A1.87,1.87,0,0,1,238.87,139.12Zm.45,4.56h3V159.1h-3Z" transform="translate(-55.11 -54.02)"/><path class="cls-2" d="M247.26,143.68h2.93v2.45h.22a4.62,4.62,0,0,1,4.6-2.74c3.44,0,5.34,2.06,5.34,5.73v10h-3v-9.22c0-2.48-1.08-3.71-3.33-3.71s-3.68,1.51-3.68,3.91v9h-3Z" transform="translate(-55.11 -54.02)"/><path class="cls-2" d="M196.94,110.85H180.73l-3.89,11.49H170l15.35-42.5h7.13l15.35,42.5h-7Zm-14.53-5.3h12.85l-6.34-18.64h-.17Z" transform="translate(-55.11 -54.02)"/><path class="cls-2" d="M241,106.85c0,9.63-5.15,15.82-12.93,15.82-4.42,0-7.93-2-9.75-5.42h-.15V132.6h-6.36V91.35h6.15v5.16H218A11,11,0,0,1,227.9,91C235.77,91,241,97.25,241,106.85Zm-6.54,0c0-6.28-3.24-10.4-8.19-10.4s-8.13,4.21-8.13,10.4,3.27,10.43,8.13,10.43S234.41,113.18,234.41,106.85Z" transform="translate(-55.11 -54.02)"/><path class="cls-2" d="M275.06,106.85c0,9.63-5.15,15.82-12.93,15.82-4.42,0-7.92-2-9.75-5.42h-.15V132.6h-6.36V91.35H252v5.16h.11A11,11,0,0,1,262,91C269.88,91,275.06,97.25,275.06,106.85Zm-6.54,0c0-6.28-3.24-10.4-8.19-10.4s-8.13,4.21-8.13,10.4,3.27,10.43,8.13,10.43S268.52,113.18,268.52,106.85Z" transform="translate(-55.11 -54.02)"/><path class="cls-2" d="M297.6,110.5c.48,4.22,4.57,7,10.17,7,5.36,0,9.22-2.76,9.22-6.57,0-3.29-2.33-5.27-7.84-6.62L303.64,103c-7.8-1.89-11.43-5.54-11.43-11.46,0-7.34,6.39-12.37,15.47-12.37s15.14,5,15.35,12.37h-6.42c-.39-4.24-3.9-6.8-9-6.8S299,87.29,299,91.06c0,3,2.24,4.77,7.72,6.13l4.68,1.14c8.72,2.07,12.35,5.57,12.35,11.79,0,7.95-6.34,12.93-16.41,12.93-9.43,0-15.8-4.86-16.21-12.55Z" transform="translate(-55.11 -54.02)"/><path class="cls-2" d="M337.44,84v7.33h5.89v5h-5.89v17.09c0,2.65,1.18,3.89,3.77,3.89a18.88,18.88,0,0,0,2.09-.15v5a18.1,18.1,0,0,1-3.53.29c-6.28,0-8.73-2.36-8.73-8.37V96.39h-4.5v-5H331V84Z" transform="translate(-55.11 -54.02)"/><path class="cls-2" d="M346.74,106.85c0-9.75,5.75-15.88,14.7-15.88s14.7,6.13,14.7,15.88-5.68,15.88-14.7,15.88S346.74,116.63,346.74,106.85Zm22.92,0c0-6.69-3.06-10.64-8.22-10.64s-8.22,4-8.22,10.64,3.07,10.63,8.22,10.63S369.66,113.57,369.66,106.85Z" transform="translate(-55.11 -54.02)"/><path class="cls-2" d="M381.39,91.35h6.07v5.28h.14a7.4,7.4,0,0,1,7.46-5.6,10.35,10.35,0,0,1,2.18.23v6a8.77,8.77,0,0,0-2.86-.39c-4.1,0-6.63,2.77-6.63,7.13v18.38h-6.36Z" transform="translate(-55.11 -54.02)"/><path class="cls-2" d="M426.57,113.24c-.86,5.63-6.34,9.49-13.35,9.49-9,0-14.61-6-14.61-15.73S404.24,91,413,91s14,5.89,14,15.29v2.18H405v.38c0,5.3,3.33,8.78,8.34,8.78,3.53,0,6.31-1.68,7.16-4.36ZM405.06,104h15.5c-.15-4.74-3.18-7.86-7.6-7.86S405.39,99.31,405.06,104Z" transform="translate(-55.11 -54.02)"/><path class="cls-2" d="M431.2,95.39l3.47-15.55h6.19l-4.22,15.55Z" transform="translate(-55.11 -54.02)"/><path class="cls-2" d="M440.58,106.85c0-9.57,5.27-15.82,13-15.82,4.45,0,8,2.06,9.72,5.48h.12V79.84h6.39v42.5h-6.19v-5.27h-.11c-1.83,3.54-5.36,5.6-9.87,5.6C445.85,122.67,440.58,116.42,440.58,106.85Zm6.51,0c0,6.36,3.24,10.43,8.19,10.43s8.16-4.13,8.16-10.43-3.27-10.4-8.16-10.4S447.09,100.54,447.09,106.85Z" transform="translate(-55.11 -54.02)"/><path class="cls-2" d="M475.38,113.54c0-5.42,4.15-8.7,11.51-9.14l8.49-.47v-2.36c0-3.44-2.27-5.39-6.13-5.39-3.53,0-6,1.68-6.51,4.36h-5.95C477,95,482.18,91,489.43,91s12.28,4,12.28,10.13v21.24h-6.09v-5.09h-.15a11.1,11.1,0,0,1-9.78,5.63C479.62,122.88,475.38,119.1,475.38,113.54Zm20-2.8v-2.39l-7.63.47c-3.8.24-5.95,1.89-5.95,4.54s2.24,4.48,5.66,4.48C491.91,117.84,495.38,114.77,495.38,110.74Z" transform="translate(-55.11 -54.02)"/><path class="cls-2" d="M508.2,91.35h6.06v5.28h.15c1.86-3.72,5-5.63,9.75-5.63,6.84,0,10.76,4.39,10.76,11.49v19.85h-6.4V103.72c0-4.65-2.15-7.24-6.62-7.24s-7.34,3.24-7.34,8v17.85H508.2Z" transform="translate(-55.11 -54.02)"/></svg>