<svg width="95" height="41" viewBox="0 0 95 41" xmlns="http://www.w3.org/2000/svg">
    <defs>
        <linearGradient x1="-.062%" y1="50.028%" x2="134.743%" y2="50.028%" id="mic8anff5a">
            <stop stop-color="#0B3254" stop-opacity="0" offset="16%"/>
            <stop stop-color="#3A5144" stop-opacity=".19" offset="24%"/>
            <stop stop-color="#7F7E2C" stop-opacity=".48" offset="39%"/>
            <stop stop-color="#B6A219" stop-opacity=".7" offset="51%"/>
            <stop stop-color="#DEBC0B" stop-opacity=".86" offset="62%"/>
            <stop stop-color="#F6CC03" stop-opacity=".96" offset="70%"/>
            <stop stop-color="#FFD200" offset="75%"/>
        </linearGradient>
    </defs>
    <g transform="translate(0 1)" fill-rule="nonzero" fill="none">
        <path d="M61.81 1.68v.03a4.079 4.079 0 0 0-3.581 4.044 4.079 4.079 0 0 0 3.58 4.045v.028h27.406V1.681H61.81z" fill="url(#mic8anff5a)"/>
        <circle fill="#FFD200" transform="rotate(-45 89.215 5.756)" cx="89.215" cy="5.756" r="4.081"/>
        <circle fill="#FFD200" transform="rotate(-45 89.215 5.756)" cx="89.215" cy="5.756" r="4.081"/>
        <path fill="#FFF" d="M11.58 40H5.172l3.447-8.15L0 13.495h6.408l5.247 11.178 4.721-11.178h6.371zM84.183 21.27v10.356h-6.074v-9.383c0-2.58-1.313-3.814-3.336-3.814-1.087 0-2.249.599-3.298 1.795v11.402h-6.108v-18.13h6.108v1.195c1.462-1.122 3.036-1.757 4.98-1.757 4.58 0 7.728 3.177 7.728 8.337zM92.174 31.626h-6.073v-18.13h6.07zM35.685 13.495v.974c-1.35-.86-2.961-1.386-4.981-1.386-4.91 0-9.035 4.037-9.035 9.458 0 5.382 4.121 9.458 9.035 9.458 2.023 0 3.635-.523 4.98-1.387v1.01h6.072V13.494h-6.071zm-3.591 13.636a4.592 4.592 0 0 1-4.598-4.587 4.592 4.592 0 0 1 4.598-4.586 4.592 4.592 0 0 1 4.597 4.586 4.592 4.592 0 0 1-4.592 4.583l-.005.004zM57.051 13.495v.974c-1.348-.86-2.96-1.386-4.98-1.386-4.91 0-9.036 4.037-9.036 9.458 0 5.382 4.123 9.458 9.035 9.458 2.024 0 3.635-.523 4.981-1.387v1.01h6.071V13.494h-6.07zm-3.585 13.636a4.592 4.592 0 0 1-4.591-4.59 4.592 4.592 0 0 1 4.597-4.583 4.592 4.592 0 0 1 4.597 4.583 4.58 4.58 0 0 1-1.348 3.245 4.603 4.603 0 0 1-3.255 1.341v.004z"/>
    </g>
</svg>
