<svg id="Layer_1" data-name="Layer 1" xmlns="http://www.w3.org/2000/svg" xmlns:xlink="http://www.w3.org/1999/xlink" viewBox="0 0 462.12 131.2"><defs><style>.cls-1{fill:#fff;}.cls-2,.cls-8{fill:#231f20;}.cls-3{fill:url(#linear-gradient);}.cls-4{fill:url(#linear-gradient-2);}.cls-5{fill:url(#linear-gradient-3);}.cls-6{fill:#217a3f;}.cls-7{fill:url(#linear-gradient-4);}.cls-8{stroke:#fff;stroke-miterlimit:10;stroke-width:0.68px;}</style><linearGradient id="linear-gradient" x1="651.7" y1="94.45" x2="608.69" y2="137.45" gradientUnits="userSpaceOnUse"><stop offset="0" stop-color="#17bdef"/><stop offset="1" stop-color="#69cce4"/></linearGradient><linearGradient id="linear-gradient-2" x1="701.24" y1="119.02" x2="618.48" y2="119.02" gradientUnits="userSpaceOnUse"><stop offset="0" stop-color="#f9e61a"/><stop offset="1" stop-color="#f99c24"/></linearGradient><linearGradient id="linear-gradient-3" x1="676.09" y1="126.87" x2="598.25" y2="204.71" gradientUnits="userSpaceOnUse"><stop offset="0" stop-color="#ee4548"/><stop offset="1" stop-color="#c51d6d"/></linearGradient><linearGradient id="linear-gradient-4" x1="616.14" y1="51.22" x2="650.9" y2="85.98" gradientUnits="userSpaceOnUse"><stop offset="0" stop-color="#38a279"/><stop offset="0.29" stop-color="#4cae77"/><stop offset="0.73" stop-color="#64bc75"/><stop offset="1" stop-color="#6dc174"/></linearGradient></defs><path class="cls-1" d="M1036.15,185.09H608.27c-9.42,0-17.12-7.38-17.12-16.4V70.29c0-9,7.7-16.4,17.12-16.4h427.88c9.42,0,17.12,7.38,17.12,16.4v98.4C1053.27,177.71,1045.57,185.09,1036.15,185.09Z" transform="translate(-591.15 -53.89)"/><path class="cls-2" d="M812.71,94.81a12.73,12.73,0,1,0,12.77,12.73A12.54,12.54,0,0,0,812.71,94.81Zm0,20.44c-3.86,0-7.18-3.18-7.18-7.71s3.32-7.72,7.18-7.72,7.18,3.14,7.18,7.72S816.57,115.25,812.71,115.25ZM784.84,94.81a12.73,12.73,0,1,0,12.78,12.73A12.55,12.55,0,0,0,784.84,94.81Zm0,20.44a7.36,7.36,0,0,1-7.18-7.71c0-4.58,3.33-7.72,7.18-7.72S792,103,792,107.54A7.36,7.36,0,0,1,784.84,115.25ZM751.69,98.71v5.4h12.92a11.18,11.18,0,0,1-2.94,6.8,13.23,13.23,0,0,1-10,4,14.37,14.37,0,0,1,0-28.73A13.75,13.75,0,0,1,761.43,90l3.81-3.81a18.82,18.82,0,0,0-13.55-5.45,19.77,19.77,0,1,0,0,39.53c5.89,0,10.32-1.93,13.79-5.54s4.68-8.58,4.68-12.63a17.89,17.89,0,0,0-.29-3.38Zm135.57,4.2c-1.06-2.85-4.29-8.1-10.89-8.1s-12,5.16-12,12.73A12.45,12.45,0,0,0,877,120.26a12.67,12.67,0,0,0,10.61-5.64l-4.34-2.89a7.27,7.27,0,0,1-6.27,3.52,6.47,6.47,0,0,1-6.17-3.86l17-7Zm-17.35,4.24a7,7,0,0,1,6.65-7.42,4.9,4.9,0,0,1,4.72,2.7Zm-13.84,12.34h5.59V82.08h-5.59Zm-9.15-21.84h-.2a8.82,8.82,0,0,0-6.7-2.84c-6.36,0-12.19,5.59-12.19,12.77A12.6,12.6,0,0,0,840,120.26a8.67,8.67,0,0,0,6.7-2.89h.2v1.83c0,4.87-2.61,7.47-6.8,7.47a7,7,0,0,1-6.41-4.53l-4.87,2a12.13,12.13,0,0,0,11.28,7.51c6.55,0,12.1-3.85,12.1-13.25V95.58h-5.3Zm-6.42,17.6c-3.85,0-7.08-3.23-7.08-7.67s3.23-7.76,7.08-7.76,6.8,3.28,6.8,7.76S844.31,115.25,840.5,115.25Zm73-33.17H900.08v37.41h5.58V105.32h7.79c6.19,0,12.27-4.48,12.27-11.62S919.64,82.08,913.45,82.08Zm.15,18h-7.94V87.29h7.94a6.41,6.41,0,1,1,0,12.82Zm34.5-5.37c-4,0-8.23,1.78-10,5.73l5,2.07a5.29,5.29,0,0,1,5.1-2.75c2.88,0,5.82,1.74,5.87,4.82V105a12.33,12.33,0,0,0-5.82-1.44c-5.35,0-10.78,2.93-10.78,8.42,0,5,4.38,8.23,9.28,8.23a7.89,7.89,0,0,0,7.13-3.66h.19v2.89h5.39V105.09C959.46,98.45,954.5,94.74,948.1,94.74Zm-.67,20.5c-1.83,0-4.38-.91-4.38-3.18,0-2.88,3.17-4,5.92-4a10,10,0,0,1,5.1,1.25A6.76,6.76,0,0,1,947.43,115.24Zm31.66-19.68-6.4,16.22h-.19l-6.64-16.22h-6l10,22.66-5.67,12.61H970L985.3,95.56ZM928.8,119.49h5.59V82.08H928.8Z" transform="translate(-591.15 -53.89)"/><path class="cls-3" d="M626.87,76.4a6.85,6.85,0,0,0-1.58,4.8v75.64a6.87,6.87,0,0,0,1.58,4.81l.26.25,42.37-42.38v-1L627.13,76.15Z" transform="translate(-591.15 -53.89)"/><path class="cls-4" d="M683.62,133.65,669.5,119.52v-1l14.13-14.13.31.19,16.74,9.51c4.78,2.71,4.78,7.16,0,9.87l-16.74,9.51Z" transform="translate(-591.15 -53.89)"/><path class="cls-5" d="M683.94,133.47,669.5,119l-42.63,42.63c1.58,1.67,4.18,1.87,7.11.21l50-28.39" transform="translate(-591.15 -53.89)"/><polygon class="cls-6" points="78.35 65.14 78.35 65.14 92.79 50.69 78.35 65.14"/><path class="cls-7" d="M683.94,104.58,634,76.19c-2.93-1.67-5.53-1.46-7.11.21L669.5,119Z" transform="translate(-591.15 -53.89)"/><path class="cls-8" d="M734.29,149.79h-2.44v-6.57h2.44Z" transform="translate(-591.15 -53.89)"/><path class="cls-8" d="M738.65,164.05V143.22H745a10.35,10.35,0,0,1,7.68,2.89,11.26,11.26,0,0,1,0,15,10.31,10.31,0,0,1-7.68,2.9Zm2.67-2.56H745a7.79,7.79,0,0,0,5.71-2.07A7.87,7.87,0,0,0,745,145.78h-3.7Z" transform="translate(-591.15 -53.89)"/><path class="cls-8" d="M771.46,145.78H762v6.6h8.55v2.51H762v6.6h9.48v2.56H759.3V143.22h12.16Z" transform="translate(-591.15 -53.89)"/><path class="cls-8" d="M775.28,164.05V143.22h3.26l10.12,16.2h.12l-.12-4V143.22h2.68v20.83h-2.79l-10.6-17h-.11l.11,4v13Z" transform="translate(-591.15 -53.89)"/><path class="cls-8" d="M800.18,164.05,808,143.22h3l7.85,20.83h-3l-2-5.64h-8.76l-2,5.64Zm5.91-8.14H813l-3.41-9.4h-.11Z" transform="translate(-591.15 -53.89)"/><path class="cls-8" d="M821.64,164.05V143.22h2.68v18.27h9v2.56Z" transform="translate(-591.15 -53.89)"/><path class="cls-8" d="M836.25,164.05V143.22h2.68v20.83Z" transform="translate(-591.15 -53.89)"/><path class="cls-8" d="M843.71,164.05V143.22H847l10.13,16.2h.11l-.11-4V143.22h2.67v20.83H857l-10.59-17h-.12l.12,4v13Z" transform="translate(-591.15 -53.89)"/></svg>