<svg id="Layer_1" data-name="Layer 1" xmlns="http://www.w3.org/2000/svg" viewBox="0 0 455.37 128.96"><defs><style>.cls-1{fill:#fff;}.cls-2{fill:#c7202f;}.cls-3{fill:none;stroke:#fff;stroke-linecap:round;stroke-miterlimit:10;stroke-width:2.76px;}.cls-4{fill:#231f20;}</style></defs><rect class="cls-1" width="455.37" height="128.96" rx="20.29"/><rect class="cls-2" x="16.77" y="16.38" width="95.93" height="95.93" rx="23.49"/><g id="g11533"><path id="path4250" class="cls-1" d="M415.41,159v5.1c0,1.45-.72,2.22-2,2.22s-2-.8-2-2.28v-5h-1.8v5.09c0,2.5,1.39,3.94,3.82,3.94s3.85-1.46,3.85-4v-5Zm6.64,0-3.92,8.9H420l.76-1.72.05-.12h4.07l.8,1.85h1.89l-3.88-8.84,0-.06Zm10.74,0-2,6.13-2-6.12h-1.93l3.1,8.9h1.49l2-5.84,2,5.84H437l3.09-8.9h-1.87l-2,6.12-2-6.13Zm17.67,0v8.89h1.78V159Zm-51.11,0v8.9h1.8v-3.61h4.08v3.61h1.82V159h-1.82v3.6h-4.08V159Zm42.23,0v8.89h6.72v-1.62h-4.94v-2.21h3.29v-1.62h-3.29v-1.82h4.77V159Zm-18.76,2.24,1.28,3h0l.09.2h-2.73l.09-.2h0Z" transform="translate(-361.29 -69.99)"/><path id="path4252" class="cls-1" d="M421.84,113.51c-.72.06-2.64.5-2.64.5h0a7.67,7.67,0,0,0-5.4,5.09,7.49,7.49,0,0,0-.34,2V122a10.17,10.17,0,0,0,.36,2.36c1.46,6.46,8.62,17.08,10.16,19.31a.21.21,0,0,0,.2.07.21.21,0,0,0,.15-.21h0c2.38-23.71-2.49-30-2.49-30Zm7.84,0s-4.88,6.28-2.51,30h0a.19.19,0,0,0,.12.18.21.21,0,0,0,.25-.09h0c1.57-2.29,8.7-12.84,10.15-19.28,0,0,.78-3.12,0-5.23a7.64,7.64,0,0,0-5.45-5.08,26,26,0,0,0-2.58-.51Zm-22.52,7.12s-4.16,4-4.36,8.13h0v.63s0,.1,0,.14a7.9,7.9,0,0,0,2.72,5.37c4.08,4,14,9,16.28,10.16a.19.19,0,0,0,.22,0,.14.14,0,0,0,.06-.08v-.11a0,0,0,0,1,0,0h0a122,122,0,0,0-14.92-24.19Zm37.19,0a122.9,122.9,0,0,0-14.89,24.14h0a.23.23,0,0,0,.05.26.17.17,0,0,0,.08,0h.09l0,0h0c2.36-1.17,12.19-6.17,16.26-10.13a7.92,7.92,0,0,0,2.71-5.4c.31-4.62-4.34-8.9-4.34-8.89Zm7.74,13.66s-14,7.52-21.25,12.4h0a.22.22,0,0,0-.08.24s.07.13.17.13h0c2.6,0,12.41,0,12.66,0a9.79,9.79,0,0,0,8.14-5.73,9.78,9.78,0,0,0,.84-4v-.1a9.67,9.67,0,0,0-.48-2.92Zm-52.66,0a9.76,9.76,0,0,0,5.63,12.06,10.18,10.18,0,0,0,3.16.7c.24,0,9.8,0,12.35,0a.22.22,0,0,0,.17-.11.08.08,0,0,0,0,0v-.1a.29.29,0,0,0-.08-.11h0c-7.23-4.88-21.25-12.39-21.25-12.39Zm20.86,14-16.49.58c1.79,3.19,4.8,5.67,7.94,4.9,2.16-.54,7.06-4,8.68-5.11h0c.13-.12.08-.21.08-.21s-.2-.14-.2-.15Zm10.91,0h0s-.14,0-.19.14a.24.24,0,0,0,.07.22h0c1.57,1.14,6.35,4.48,8.66,5.13a3.54,3.54,0,0,0,.94.14H441c1.54,0,4.23-.84,6.67-5Z" transform="translate(-361.29 -69.99)"/></g><path class="cls-3" d="M400.2,92.91s24.37,20.62,50.26,0" transform="translate(-361.29 -69.99)"/><path class="cls-4" d="M499.72,94.6v10.72h12.39V94.6h3.35v25.63h-3.35v-12H499.72v12h-3.35V94.6Z" transform="translate(-361.29 -69.99)"/><path class="cls-4" d="M522.94,111.64c.08,4.52,2.93,6.38,6.32,6.38a11.86,11.86,0,0,0,5.09-1l.61,2.4a15,15,0,0,1-6.16,1.18c-5.67,0-9-3.77-9-9.32s3.27-9.88,8.63-9.88c6,0,7.61,5.24,7.61,8.63a7.8,7.8,0,0,1-.12,1.56Zm9.81-2.4c0-2.09-.87-5.4-4.64-5.4-3.42,0-4.86,3.08-5.13,5.4Z" transform="translate(-361.29 -69.99)"/><path class="cls-4" d="M540.13,106.81c0-1.94-.08-3.46-.16-5h2.93l.15,3h.12a6.35,6.35,0,0,1,5.82-3.38,5.43,5.43,0,0,1,5.17,3.68h.07a7.28,7.28,0,0,1,2.09-2.39,6.19,6.19,0,0,1,4-1.29c2.47,0,6.08,1.59,6.08,8v10.8h-3.27V109.85c0-3.58-1.33-5.67-4-5.67a4.41,4.41,0,0,0-4,3,5.73,5.73,0,0,0-.26,1.67v11.37h-3.27v-11c0-2.93-1.29-5-3.84-5a4.62,4.62,0,0,0-4.15,3.35,4.46,4.46,0,0,0-.26,1.63v11.07h-3.27Z" transform="translate(-361.29 -69.99)"/><path class="cls-4" d="M573.7,111.64c.07,4.52,2.92,6.38,6.31,6.38a11.82,11.82,0,0,0,5.09-1l.61,2.4a15,15,0,0,1-6.16,1.18c-5.66,0-9-3.77-9-9.32s3.27-9.88,8.63-9.88c6,0,7.61,5.24,7.61,8.63a7.8,7.8,0,0,1-.12,1.56Zm9.81-2.4c0-2.09-.88-5.4-4.64-5.4-3.43,0-4.87,3.08-5.14,5.4Z" transform="translate(-361.29 -69.99)"/><path class="cls-4" d="M590.88,106.81c0-1.94,0-3.46-.15-5h3l.19,3.05H594a6.81,6.81,0,0,1,6.08-3.42c2.55,0,6.51,1.52,6.51,7.83v11H603.2V109.62c0-3-1.1-5.44-4.26-5.44a4.89,4.89,0,0,0-4.71,5v11.07h-3.35Z" transform="translate(-361.29 -69.99)"/><path class="cls-4" d="M623.76,96.65a2.07,2.07,0,0,1-4.14,0,2,2,0,0,1,2.09-2.09A2,2,0,0,1,623.76,96.65ZM620,120.23V101.82h3.34v18.41Z" transform="translate(-361.29 -69.99)"/><path class="cls-4" d="M628.93,106.81c0-1.94,0-3.46-.15-5h3l.19,3.05H632a6.84,6.84,0,0,1,6.09-3.42c2.55,0,6.5,1.52,6.5,7.83v11h-3.35V109.62c0-3-1.1-5.44-4.26-5.44a4.83,4.83,0,0,0-4.48,3.43,4.77,4.77,0,0,0-.23,1.55v11.07h-3.35Z" transform="translate(-361.29 -69.99)"/><path class="cls-4" d="M665.89,93.23v22.25c0,1.63.08,3.49.15,4.75h-3l-.16-3.2h-.11a6.64,6.64,0,0,1-6.2,3.62c-4.45,0-7.91-3.77-7.91-9.36,0-6.12,3.8-9.84,8.25-9.84a6.18,6.18,0,0,1,5.56,2.77h.07v-11Zm-3.31,16.09a6.15,6.15,0,0,0-.15-1.41,4.93,4.93,0,0,0-4.83-3.84c-3.46,0-5.51,3-5.51,7.07,0,3.73,1.86,6.81,5.43,6.81a5.07,5.07,0,0,0,4.91-4,6.09,6.09,0,0,0,.15-1.45Z" transform="translate(-361.29 -69.99)"/><path class="cls-4" d="M675.2,96.65a2,2,0,0,1-2.13,2.06,2,2,0,0,1-2-2.06,2,2,0,0,1,2.09-2.09A2,2,0,0,1,675.2,96.65Zm-3.73,23.58V101.82h3.35v18.41Z" transform="translate(-361.29 -69.99)"/><path class="cls-4" d="M680.37,107.57c0-2.17,0-4-.15-5.75h2.93l.15,3.66h.11a5.56,5.56,0,0,1,5.14-4,6.59,6.59,0,0,1,.91.07v3.16a5,5,0,0,0-1.14-.08c-2.36,0-4,1.75-4.49,4.26a9.63,9.63,0,0,0-.11,1.56v9.81h-3.35Z" transform="translate(-361.29 -69.99)"/><path class="cls-4" d="M696.68,96.65a2,2,0,0,1-2.13,2.06,2,2,0,0,1-2-2.06,2,2,0,0,1,2.09-2.09A2,2,0,0,1,696.68,96.65ZM693,120.23V101.82h3.35v18.41Z" transform="translate(-361.29 -69.99)"/><path class="cls-4" d="M701.85,106.81c0-1.94,0-3.46-.15-5h3l.19,3.05h.08a6.81,6.81,0,0,1,6.08-3.42c2.55,0,6.51,1.52,6.51,7.83v11h-3.35V109.62c0-3-1.1-5.44-4.26-5.44a4.89,4.89,0,0,0-4.71,5v11.07h-3.35Z" transform="translate(-361.29 -69.99)"/><path class="cls-4" d="M505.69,157.79l-4.16,12.57H496.2l13.64-40H516l13.64,40h-5.52l-4.27-12.57Zm13.16-4-4-11.51c-.89-2.61-1.48-5-2.08-7.3h-.11c-.6,2.32-1.19,4.81-2,7.24l-3.92,11.57Z" transform="translate(-361.29 -69.99)"/><path class="cls-4" d="M535.17,151c0-3.68-.12-6.65-.24-9.37h4.63l.29,4.92H540a11.18,11.18,0,0,1,10.2-5.52c7,0,12.22,5.87,12.22,14.53,0,10.32-6.35,15.42-13.11,15.42a10.09,10.09,0,0,1-8.84-4.5h-.11v15.6h-5.16Zm5.16,7.65a8.43,8.43,0,0,0,.23,2.13,8.06,8.06,0,0,0,7.83,6.11c5.52,0,8.72-4.51,8.72-11.09,0-5.69-3-10.62-8.54-10.62a9,9,0,0,0-8.24,8.49Z" transform="translate(-361.29 -69.99)"/><path class="cls-4" d="M568.91,151c0-3.68-.11-6.65-.23-9.37h4.62l.3,4.92h.12c2.07-3.5,5.51-5.52,10.2-5.52,7,0,12.22,5.87,12.22,14.53,0,10.32-6.35,15.42-13.11,15.42a10.08,10.08,0,0,1-8.84-4.5h-.12v15.6h-5.16Zm5.16,7.65a8.07,8.07,0,0,0,8.07,8.24c5.52,0,8.72-4.51,8.72-11.09,0-5.69-3-10.62-8.54-10.62a8.23,8.23,0,0,0-7.89,6.41,8.33,8.33,0,0,0-.36,2.08Z" transform="translate(-361.29 -69.99)"/><path class="cls-4" d="M633.33,168.58a36.15,36.15,0,0,1-12.34,2.2c-6,0-11-1.54-15-5.28-3.44-3.32-5.57-8.66-5.57-14.89,0-11.92,8.24-20.64,21.65-20.64a25.06,25.06,0,0,1,10,1.84L630.83,136A19.79,19.79,0,0,0,622,134.3c-9.73,0-16.08,6-16.08,16.07s6.05,16.14,15.43,16.14a16.89,16.89,0,0,0,6.88-1.07V153.52h-8.07v-4.15h13.17Z" transform="translate(-361.29 -69.99)"/><path class="cls-4" d="M661.62,163.48a49.14,49.14,0,0,0,.41,6.88h-4.68l-.42-3.62h-.18A10.66,10.66,0,0,1,648,171c-5.82,0-8.78-4.09-8.78-8.24,0-6.94,6.17-10.74,17.26-10.68v-.59c0-2.31-.65-6.64-6.53-6.58a13.89,13.89,0,0,0-7.53,2.13l-1.18-3.5a18.59,18.59,0,0,1,9.48-2.49c8.78,0,10.92,6,10.92,11.69Zm-5-7.77c-5.7-.12-12.16.89-12.16,6.47,0,3.44,2.25,5,4.86,5a7.24,7.24,0,0,0,7.06-4.8,5.9,5.9,0,0,0,.24-1.67Z" transform="translate(-361.29 -69.99)"/><path class="cls-4" d="M670,128.25h5.22v42.11H670Z" transform="translate(-361.29 -69.99)"/><path class="cls-4" d="M684,128.25h5.22v42.11H684Z" transform="translate(-361.29 -69.99)"/><path class="cls-4" d="M700.94,157c.12,7.06,4.57,10,9.85,10a18.64,18.64,0,0,0,7.94-1.48l.95,3.74a23.37,23.37,0,0,1-9.6,1.83c-8.84,0-14.12-5.87-14.12-14.53s5.1-15.42,13.46-15.42c9.43,0,11.86,8.19,11.86,13.47a12.81,12.81,0,0,1-.17,2.43Zm15.3-3.74c.06-3.26-1.36-8.42-7.23-8.42-5.34,0-7.59,4.8-8,8.42Z" transform="translate(-361.29 -69.99)"/><path class="cls-4" d="M727.75,150.61c0-3.38-.06-6.29-.24-9h4.57l.24,5.69h.18c1.3-3.86,4.5-6.29,8-6.29a10.6,10.6,0,0,1,1.43.12v4.92a8.8,8.8,0,0,0-1.78-.11c-3.68,0-6.29,2.72-7,6.64a15.4,15.4,0,0,0-.18,2.43v15.3h-5.22Z" transform="translate(-361.29 -69.99)"/><path class="cls-4" d="M750.53,141.66l6.22,17c.72,1.9,1.43,4.15,1.9,5.87h.12c.53-1.72,1.13-3.91,1.84-6l5.69-16.84h5.52L764,162.12c-3.74,9.84-6.29,14.83-9.85,18a14.89,14.89,0,0,1-6.4,3.32l-1.31-4.33a13.56,13.56,0,0,0,4.57-2.55,16.59,16.59,0,0,0,4.39-5.81,3.68,3.68,0,0,0,.41-1.25,3.52,3.52,0,0,0-.41-1.36l-10.56-26.45Z" transform="translate(-361.29 -69.99)"/></svg>