<?xml version="1.0" encoding="UTF-8"?>
<svg xmlns="http://www.w3.org/2000/svg" width="32px" height="32px" viewBox="0 0 32 32" version="1.1">
    <g id="surface1">
        <path style=" stroke:none;fill-rule:nonzero;fill:rgb(0%,63.137255%,87.058824%);fill-opacity:1;"
              d="M 25.121094 9.738281 C 24.007812 4.347656 18.722656 0.875 13.316406 1.984375 C 8.6875 2.933594 5.359375 6.988281 5.335938 11.699219 C 5.335938 11.925781 5.347656 12.15625 5.367188 12.398438 C 2.074219 12.746094 -0.316406 15.691406 0.0351562 18.972656 C 0.359375 22.019531 2.9375 24.332031 6.003906 24.324219 L 6.703125 24.324219 C 6.6875 24.101562 6.667969 23.882812 6.667969 23.660156 C 6.667969 18.890625 10.546875 15.023438 15.332031 15.023438 C 20.113281 15.023438 23.992188 18.890625 23.992188 23.660156 C 23.992188 23.882812 23.976562 24.101562 23.960938 24.324219 L 24.660156 24.324219 C 28.703125 24.335938 31.988281 21.074219 32 17.042969 C 32.011719 13.175781 28.992188 9.96875 25.121094 9.738281 Z M 25.121094 9.738281 "/>
        <path style=" stroke:none;fill-rule:nonzero;fill:rgb(100%,81.960784%,0%);fill-opacity:1;"
              d="M 22.546875 23.59375 C 22.546875 27.613281 19.289062 30.867188 15.273438 30.867188 C 11.257812 30.867188 8 27.613281 8 23.59375 C 8 19.578125 11.257812 16.324219 15.273438 16.324219 C 19.289062 16.324219 22.546875 19.578125 22.546875 23.59375 Z M 22.546875 23.59375 "/>
        <path style=" stroke:none;fill-rule:nonzero;fill:rgb(4.313725%,19.607843%,32.941176%);fill-opacity:1;"
              d="M 15.269531 19.960938 L 15.324219 19.960938 L 15.269531 19.960938 C 15.320312 19.960938 15.367188 19.964844 15.414062 19.976562 L 15.417969 19.980469 C 15.484375 19.996094 15.542969 20.019531 15.597656 20.058594 L 15.605469 20.0625 C 15.628906 20.078125 15.652344 20.09375 15.675781 20.117188 L 15.683594 20.121094 L 18.011719 22.339844 C 18.121094 22.441406 18.183594 22.582031 18.183594 22.730469 C 18.183594 22.878906 18.121094 23.023438 18.011719 23.121094 C 17.898438 23.226562 17.75 23.285156 17.597656 23.285156 C 17.445312 23.285156 17.296875 23.226562 17.1875 23.121094 L 15.851562 21.851562 L 15.851562 27.164062 C 15.851562 27.46875 15.589844 27.71875 15.269531 27.71875 C 14.949219 27.71875 14.6875 27.46875 14.6875 27.164062 L 14.6875 21.851562 L 13.351562 23.121094 C 13.117188 23.335938 12.753906 23.328125 12.527344 23.109375 C 12.421875 23.007812 12.363281 22.867188 12.363281 22.722656 C 12.363281 22.578125 12.421875 22.441406 12.527344 22.339844 L 14.859375 20.121094 C 14.957031 20.03125 15.082031 19.972656 15.214844 19.960938 L 15.226562 19.960938 C 15.242188 19.960938 15.253906 19.960938 15.269531 19.960938 Z M 15.269531 19.960938 "/>
    </g>
</svg>
