<svg width="32" height="32" xmlns="http://www.w3.org/2000/svg">
    <g fill-rule="nonzero" fill="none">
        <path d="M11.537 5.073h8.243c.526 0 .952-.379.952-.845V1.973C20.732.885 19.736 0 18.512 0h-5.707c-1.224 0-2.22.885-2.22 1.973v2.255c0 .466.427.845.952.845zM7.8 32h15.718c1.907 0 3.458-1.67 3.458-3.725V9.991c0-.56-.423-1.015-.943-1.015H5.285c-.521 0-.944.455-.944 1.015v18.284C4.341 30.33 5.891 32 7.8 32z" fill="#00A1DE"/>
        <path d="M2.945 10.537h25.818c.521 0 .944-.406.944-.905V7.22c0-1.83-1.553-3.318-3.463-3.318H5.464C3.552 3.902 2 5.39 2 7.22v2.412c0 .5.423.905.945.905z" fill="#00A1DE"/>
        <g fill="#FFF">
            <path d="M21.382 25.366c.72 0 1.3-.552 1.3-1.232V14.89c0-.68-.58-1.232-1.3-1.232-.72 0-1.3.552-1.3 1.232v9.243c0 .68.58 1.232 1.3 1.232zM15.854 25.366c.719 0 1.3-.552 1.3-1.232V14.89c0-.68-.581-1.232-1.3-1.232-.72 0-1.301.552-1.301 1.232v9.243c0 .68.581 1.232 1.3 1.232zM10.325 25.366c.72 0 1.301-.552 1.301-1.232V14.89c0-.68-.581-1.232-1.3-1.232-.72 0-1.302.552-1.302 1.232v9.243c0 .68.582 1.232 1.301 1.232z"/>
        </g>
    </g>
</svg>
